<mxfile host="Electron" modified="2023-05-11T05:53:56.635Z" agent="Mozilla/5.0 (Windows NT 10.0; Win64; x64) AppleWebKit/537.36 (KHTML, like Gecko) draw.io/21.2.8 Chrome/112.0.5615.165 Electron/24.2.0 Safari/537.36" etag="DStqI16EJ3hRabYcjxvP" version="21.2.8" type="device">
  <diagram name="Page-1" id="f1b7ffb7-ca1e-a977-7cf5-a751b3c06c05">
    <mxGraphModel dx="1036" dy="614" grid="1" gridSize="10" guides="1" tooltips="1" connect="1" arrows="1" fold="1" page="1" pageScale="1" pageWidth="826" pageHeight="1169" background="none" math="0" shadow="0">
      <root>
        <mxCell id="0" />
        <mxCell id="1" parent="0" />
        <mxCell id="Q9-FGObiH1zWscmfd5dS-70" value="" style="verticalLabelPosition=bottom;verticalAlign=top;strokeWidth=1;shape=mxgraph.mockup.graphics.iconGrid;strokeColor=#CCCCCC;gridSize=1,1;" vertex="1" parent="1">
          <mxGeometry x="20" y="1020" width="760" height="90" as="geometry" />
        </mxCell>
        <mxCell id="13" value="" style="verticalLabelPosition=bottom;verticalAlign=top;strokeWidth=1;shape=mxgraph.mockup.graphics.iconGrid;strokeColor=#CCCCCC;gridSize=1,1;" parent="1" vertex="1">
          <mxGeometry x="20" y="120" width="460" height="430" as="geometry" />
        </mxCell>
        <mxCell id="2" value="Ministry of Movement" style="text;spacingTop=-5;fontSize=18;fontStyle=0" parent="1" vertex="1">
          <mxGeometry x="70" y="30" width="230" height="20" as="geometry" />
        </mxCell>
        <mxCell id="3" value="" style="line;strokeWidth=1" parent="1" vertex="1">
          <mxGeometry x="20" y="60" width="780" height="10" as="geometry" />
        </mxCell>
        <mxCell id="4" value="" style="line;strokeWidth=1" parent="1" vertex="1">
          <mxGeometry x="20" y="90" width="780" height="10" as="geometry" />
        </mxCell>
        <mxCell id="5" value="Home" style="text;spacingTop=-5;" parent="1" vertex="1">
          <mxGeometry x="20" y="70.00000000000009" width="30" height="20" as="geometry" />
        </mxCell>
        <mxCell id="6" value="Shop All" style="text;spacingTop=-5;" parent="1" vertex="1">
          <mxGeometry x="80" y="70" width="50" height="20" as="geometry" />
        </mxCell>
        <mxCell id="7" value="Contact" style="text;spacingTop=-5;" parent="1" vertex="1">
          <mxGeometry x="269.9999999999999" y="70" width="30" height="20" as="geometry" />
        </mxCell>
        <mxCell id="18" value="More" style="text;spacingTop=-5;fontStyle=4" parent="1" vertex="1">
          <mxGeometry x="755" y="470" width="30" height="20" as="geometry" />
        </mxCell>
        <mxCell id="19" value="1 week ago" style="text;spacingTop=-5;fontStyle=0;align=right" parent="1" vertex="1">
          <mxGeometry x="755" y="490" width="30" height="20" as="geometry" />
        </mxCell>
        <mxCell id="20" value="" style="verticalLabelPosition=bottom;verticalAlign=top;strokeWidth=1;shape=mxgraph.mockup.graphics.iconGrid;strokeColor=#CCCCCC;gridSize=1,1;" parent="1" vertex="1">
          <mxGeometry x="20" y="15" width="40" height="40" as="geometry" />
        </mxCell>
        <mxCell id="21" value="Butterfly&#xa;Logo" style="text;spacingTop=-5;align=center" parent="1" vertex="1">
          <mxGeometry x="20" y="20" width="40" height="40" as="geometry" />
        </mxCell>
        <mxCell id="23" value="Gallery" style="text;spacingTop=-5;" parent="1" vertex="1">
          <mxGeometry x="139.99999999999997" y="70.00000000000003" width="30" height="20" as="geometry" />
        </mxCell>
        <mxCell id="24" value="Newletter" style="text;spacingTop=-5;" parent="1" vertex="1">
          <mxGeometry x="200" y="70.00000000000013" width="30" height="20" as="geometry" />
        </mxCell>
        <mxCell id="27" value="" style="verticalLabelPosition=bottom;verticalAlign=top;strokeWidth=1;shape=mxgraph.mockup.graphics.iconGrid;strokeColor=#CCCCCC;gridSize=1,1;" parent="1" vertex="1">
          <mxGeometry x="20" y="570" width="760" height="310" as="geometry" />
        </mxCell>
        <mxCell id="29" value="Mission statement and desciption of site" style="text;spacingTop=-5;whiteSpace=wrap;align=center;fontSize=25;" parent="1" vertex="1">
          <mxGeometry x="240" y="690" width="340" height="70" as="geometry" />
        </mxCell>
        <mxCell id="Q9-FGObiH1zWscmfd5dS-62" value="Search Bar" style="text;html=1;align=center;verticalAlign=middle;resizable=0;points=[];autosize=1;strokeColor=none;fillColor=none;" vertex="1" parent="1">
          <mxGeometry x="655" y="65" width="80" height="30" as="geometry" />
        </mxCell>
        <mxCell id="Q9-FGObiH1zWscmfd5dS-63" value="" style="verticalLabelPosition=bottom;shadow=0;dashed=0;align=center;html=1;verticalAlign=top;strokeWidth=1;shape=mxgraph.mockup.containers.userFemale;strokeColor=#666666;strokeColor2=#008cff;" vertex="1" parent="1">
          <mxGeometry x="500" y="120" width="285" height="430" as="geometry" />
        </mxCell>
        <mxCell id="Q9-FGObiH1zWscmfd5dS-64" value="Title/subtitle of businessÂ " style="text;spacingTop=-5;whiteSpace=wrap;align=center;fontSize=20;" vertex="1" parent="1">
          <mxGeometry x="80" y="305" width="340" height="60" as="geometry" />
        </mxCell>
        <mxCell id="Q9-FGObiH1zWscmfd5dS-66" value="Site created by fowler tech co." style="text;html=1;align=center;verticalAlign=middle;resizable=0;points=[];autosize=1;strokeColor=none;fillColor=none;" vertex="1" parent="1">
          <mxGeometry x="30" y="1070" width="180" height="30" as="geometry" />
        </mxCell>
        <mxCell id="Q9-FGObiH1zWscmfd5dS-68" value="" style="verticalLabelPosition=bottom;verticalAlign=top;strokeWidth=1;shape=mxgraph.mockup.graphics.iconGrid;strokeColor=#CCCCCC;gridSize=1,1;" vertex="1" parent="1">
          <mxGeometry x="555" y="920" width="230" height="90" as="geometry" />
        </mxCell>
        <mxCell id="Q9-FGObiH1zWscmfd5dS-69" value="Social Media Links" style="text;html=1;align=center;verticalAlign=middle;resizable=0;points=[];autosize=1;strokeColor=none;fillColor=none;" vertex="1" parent="1">
          <mxGeometry x="610" y="950" width="120" height="30" as="geometry" />
        </mxCell>
        <mxCell id="Q9-FGObiH1zWscmfd5dS-71" value="Footer" style="text;html=1;align=center;verticalAlign=middle;resizable=0;points=[];autosize=1;strokeColor=none;fillColor=none;" vertex="1" parent="1">
          <mxGeometry x="365" y="1050" width="60" height="30" as="geometry" />
        </mxCell>
      </root>
    </mxGraphModel>
  </diagram>
</mxfile>
